<svg xmlns="http://www.w3.org/2000/svg" xmlns:xlink="http://www.w3.org/1999/xlink" width="500" zoomAndPan="magnify" viewBox="0 0 375 374.999991" height="500" preserveAspectRatio="xMidYMid meet" version="1.0"><defs><g/><clipPath id="c36b653d56"><path d="M 62 108 L 365 108 L 365 157 L 62 157 Z M 62 108 " clip-rule="nonzero"/></clipPath><clipPath id="ed5f336b4a"><path d="M 59.65625 107.199219 L 361.980469 86.960938 L 366.136719 149.074219 L 63.816406 169.308594 Z M 59.65625 107.199219 " clip-rule="nonzero"/></clipPath><clipPath id="6529102f85"><path d="M 63.835938 169.601562 L 366.15625 149.363281 L 362 87.253906 L 59.675781 107.492188 Z M 63.835938 169.601562 " clip-rule="nonzero"/></clipPath><clipPath id="c02ca9520b"><path d="M 63.835938 169.601562 L 366.15625 149.363281 L 362 87.253906 L 59.675781 107.492188 Z M 63.835938 169.601562 " clip-rule="nonzero"/></clipPath></defs><g fill="#231f20" fill-opacity="1"><g transform="translate(45.941532, 209.521749)"><g><path d="M 76.796875 -27.140625 C 77.523438 -27.265625 78.28125 -27.3125 79.0625 -27.28125 C 79.84375 -27.25 80.601562 -27.035156 81.34375 -26.640625 C 81.46875 -26.515625 81.582031 -26.296875 81.6875 -25.984375 C 81.789062 -25.679688 81.875 -25.394531 81.9375 -25.125 C 81.9375 -25 81.867188 -24.851562 81.734375 -24.6875 C 81.597656 -24.519531 81.46875 -24.359375 81.34375 -24.203125 C 81 -24.015625 80.660156 -23.878906 80.328125 -23.796875 C 75.953125 -22.929688 71.894531 -21.472656 68.15625 -19.421875 C 64.425781 -17.367188 60.875 -15 57.5 -12.3125 C 52.90625 -8.726562 48.671875 -4.800781 44.796875 -0.53125 C 40.929688 3.738281 37.28125 8.203125 33.84375 12.859375 C 27.320312 21.617188 21.257812 30.710938 15.65625 40.140625 C 14.375 42.316406 13.0625 44.445312 11.71875 46.53125 C 11.53125 46.925781 11.296875 47.289062 11.015625 47.625 C 10.410156 48.632812 9.738281 49.582031 9 50.46875 C 7.039062 52.550781 4.742188 53.054688 2.109375 51.984375 C 1.035156 51.441406 0.414062 50.71875 0.25 49.8125 C 0.0820312 48.90625 0.109375 47.945312 0.328125 46.9375 C 1.796875 33.644531 2.664062 20.375 2.9375 7.125 C 3.457031 -10.664062 3.800781 -28.457031 3.96875 -46.25 C 4.132812 -64.039062 3.851562 -81.816406 3.125 -99.578125 C 2.664062 -110.234375 2.066406 -120.914062 1.328125 -131.625 C 0.992188 -136.53125 0.660156 -141.445312 0.328125 -146.375 C 0.328125 -146.769531 0.28125 -147.140625 0.1875 -147.484375 C 0.125 -148.492188 0.09375 -149.503906 0.09375 -150.515625 C 0.25 -152.078125 1.117188 -152.945312 2.703125 -153.125 C 3.660156 -153.28125 4.515625 -153.1875 5.265625 -152.84375 C 6.015625 -152.507812 6.445312 -152.003906 6.5625 -151.328125 C 7.175781 -148.816406 7.625 -146.289062 7.90625 -143.75 C 7.90625 -143.019531 7.929688 -142.269531 7.984375 -141.5 C 8.992188 -127.632812 9.867188 -113.765625 10.609375 -99.890625 C 11.347656 -86.140625 11.703125 -72.375 11.671875 -58.59375 C 11.640625 -44.820312 11.453125 -31.03125 11.109375 -17.21875 C 10.898438 -5.925781 10.597656 5.382812 10.203125 16.71875 C 10.140625 19.351562 10 21.972656 9.78125 24.578125 C 9.65625 26.078125 9.5625 27.5625 9.5 29.03125 C 9.445312 30.3125 9.375 31.628906 9.28125 32.984375 C 9.28125 33.585938 9.25 34.195312 9.1875 34.8125 C 9.394531 34.875 9.5625 34.9375 9.6875 35 C 9.90625 35 10.101562 35.03125 10.28125 35.09375 C 10.625 34.570312 10.960938 34.066406 11.296875 33.578125 C 12.179688 32.171875 13.097656 30.757812 14.046875 29.34375 C 20.296875 19.363281 27.203125 9.90625 34.765625 0.96875 C 38.597656 -3.5625 42.6875 -7.765625 47.03125 -11.640625 C 51.375 -15.515625 56.132812 -18.9375 61.3125 -21.90625 C 63.757812 -23.25 66.242188 -24.390625 68.765625 -25.328125 C 71.296875 -26.265625 73.972656 -26.867188 76.796875 -27.140625 Z M 76.796875 -27.140625 "/></g></g></g><g fill="#231f20" fill-opacity="1"><g transform="translate(120.303846, 209.521749)"><g><path d="M 51.96875 -23.609375 C 51.125 -21.035156 49.453125 -18.085938 46.953125 -14.765625 C 44.460938 -11.441406 41.347656 -9.304688 37.609375 -8.359375 C 33.878906 -7.410156 30.648438 -7.539062 27.921875 -8.75 C 25.203125 -9.957031 23.703125 -13.195312 23.421875 -18.46875 C 20.328125 -12.46875 17.378906 -8.625 14.578125 -6.9375 C 11.773438 -5.25 8.859375 -4.601562 5.828125 -5 C 2.398438 -5.550781 0.0820312 -6.882812 -1.125 -9 C -2.332031 -11.113281 -2.738281 -13.554688 -2.34375 -16.328125 C -1.945312 -19.097656 -1.101562 -21.753906 0.1875 -24.296875 C 1.195312 -26.191406 2.597656 -27.953125 4.390625 -29.578125 C 6.179688 -31.203125 8.054688 -32.472656 10.015625 -33.390625 C 12.429688 -34.617188 14.863281 -35.203125 17.3125 -35.140625 C 19.757812 -35.078125 22.378906 -34.265625 25.171875 -32.703125 C 25.234375 -32.640625 25.265625 -32.703125 25.265625 -32.890625 C 25.265625 -33.160156 25.332031 -33.5 25.46875 -33.90625 C 25.601562 -34.320312 25.835938 -34.65625 26.171875 -34.90625 C 27.097656 -35.582031 28.1875 -35.921875 29.4375 -35.921875 C 30.695312 -35.921875 31.660156 -35.289062 32.328125 -34.03125 C 32.453125 -32.40625 32.285156 -30.335938 31.828125 -27.828125 C 30.816406 -22.316406 30.816406 -18.351562 31.828125 -15.9375 C 32.835938 -13.519531 34.617188 -12.394531 37.171875 -12.5625 C 39.734375 -12.726562 43.050781 -15.253906 47.125 -20.140625 C 51.195312 -25.023438 52.8125 -26.179688 51.96875 -23.609375 Z M 6.75 -10.65625 C 8.15625 -9.644531 9.769531 -9.78125 11.59375 -11.0625 C 13.414062 -12.351562 15.164062 -14.175781 16.84375 -16.53125 C 18.53125 -18.894531 19.945312 -21.253906 21.09375 -23.609375 C 22.25 -25.960938 22.890625 -27.707031 23.015625 -28.84375 C 19.578125 -30.675781 16.632812 -30.988281 14.1875 -29.78125 C 11.738281 -28.570312 9.785156 -26.597656 8.328125 -23.859375 C 6.878906 -21.117188 6.015625 -18.453125 5.734375 -15.859375 C 5.460938 -13.273438 5.800781 -11.539062 6.75 -10.65625 Z M 6.75 -10.65625 "/></g></g></g><g fill="#231f20" fill-opacity="1"><g transform="translate(168.990717, 209.521749)"><g><path d="M 47.484375 -23.109375 C 48.160156 -23.046875 48.046875 -22.117188 47.140625 -20.328125 C 46.242188 -18.535156 44.757812 -16.472656 42.6875 -14.140625 C 40.625 -11.816406 38.3125 -9.8125 35.75 -8.125 C 33.195312 -6.445312 30.648438 -5.679688 28.109375 -5.828125 C 26.210938 -6.015625 24.8125 -6.582031 23.90625 -7.53125 C 23 -8.476562 22.378906 -9.523438 22.046875 -10.671875 C 21.710938 -11.828125 21.5 -12.832031 21.40625 -13.6875 C 21.34375 -14.300781 21.265625 -14.757812 21.171875 -15.0625 C 21.078125 -15.375 20.894531 -15.390625 20.625 -15.109375 C 18.664062 -10.609375 15.265625 -8.359375 10.421875 -8.359375 C 7.734375 -8.359375 5.546875 -9.550781 3.859375 -11.9375 C 2.171875 -14.332031 1.101562 -17.328125 0.65625 -20.921875 C 0.21875 -24.515625 0.566406 -28.164062 1.703125 -31.875 C 1.972656 -33.101562 2.722656 -33.945312 3.953125 -34.40625 C 4.804688 -34.738281 5.691406 -34.707031 6.609375 -34.3125 C 7.523438 -33.914062 8.015625 -33.316406 8.078125 -32.515625 C 8.078125 -31.691406 8.019531 -30.878906 7.90625 -30.078125 C 7.75 -29.472656 7.640625 -28.894531 7.578125 -28.34375 C 7.453125 -26.132812 7.488281 -23.710938 7.6875 -21.078125 C 7.882812 -18.441406 8.582031 -16.191406 9.78125 -14.328125 C 10.945312 -12.828125 12.234375 -12.632812 13.640625 -13.75 C 15.046875 -14.875 16.285156 -16.613281 17.359375 -18.96875 C 18.179688 -20.832031 18.832031 -22.691406 19.3125 -24.546875 C 19.789062 -26.398438 20.085938 -27.832031 20.203125 -28.84375 C 20.328125 -29.269531 20.390625 -29.546875 20.390625 -29.671875 C 20.609375 -30.460938 20.820312 -31.242188 21.03125 -32.015625 C 21.375 -33.148438 21.710938 -34.25 22.046875 -35.3125 C 22.628906 -37.394531 24.097656 -38.269531 26.453125 -37.9375 C 27.890625 -37.8125 28.671875 -37.109375 28.796875 -35.828125 C 28.921875 -34.078125 28.953125 -32.332031 28.890625 -30.59375 C 28.828125 -28.75 28.734375 -26.957031 28.609375 -25.21875 C 28.460938 -22.675781 28.359375 -20.148438 28.296875 -17.640625 C 28.234375 -13.992188 28.957031 -11.867188 30.46875 -11.265625 C 31.988281 -10.671875 33.84375 -11.0625 36.03125 -12.4375 C 38.21875 -13.820312 40.320312 -15.691406 42.34375 -18.046875 C 42.53125 -18.265625 42.757812 -18.539062 43.03125 -18.875 C 43.425781 -19.394531 43.914062 -19.976562 44.5 -20.625 C 45.082031 -21.269531 45.640625 -21.828125 46.171875 -22.296875 C 46.710938 -22.773438 47.148438 -23.046875 47.484375 -23.109375 Z M 47.484375 -23.109375 "/></g></g></g><g fill="#231f20" fill-opacity="1"><g transform="translate(213.773462, 209.521749)"><g><path d="M 29.296875 -22 C 29.878906 -23.195312 30.273438 -23.75 30.484375 -23.65625 C 30.703125 -23.5625 30.757812 -23.078125 30.65625 -22.203125 C 30.550781 -21.328125 30.359375 -20.34375 30.078125 -19.25 C 29.679688 -17.5625 28.992188 -15.609375 28.015625 -13.390625 C 27.035156 -11.171875 25.945312 -9.15625 24.75 -7.34375 C 22.976562 -4.832031 20.78125 -2.941406 18.15625 -1.671875 C 15.539062 -0.398438 13.171875 -0.0859375 11.046875 -0.734375 C 8.921875 -1.378906 7.6875 -3.382812 7.34375 -6.75 C 7.28125 -9.570312 7.523438 -12.664062 8.078125 -16.03125 C 8.265625 -17.4375 8.46875 -18.8125 8.6875 -20.15625 C 8.6875 -20.644531 8.5625 -21.019531 8.3125 -21.28125 C 8.070312 -21.539062 7.75 -21.644531 7.34375 -21.59375 C 7.070312 -21.59375 6.769531 -21.59375 6.4375 -21.59375 C 4.75 -21.3125 3.03125 -21.335938 1.28125 -21.671875 C -0.800781 -22.285156 -2.007812 -23.316406 -2.34375 -24.765625 C -2.675781 -26.222656 -2.644531 -28.132812 -2.25 -30.5 C -2.03125 -32.175781 -1.398438 -33.4375 -0.359375 -34.28125 C 0.671875 -35.125 1.894531 -35.46875 3.3125 -35.3125 C 5.269531 -35.132812 6.21875 -34.382812 6.15625 -33.0625 C 6.09375 -31.75 5.722656 -30.34375 5.046875 -28.84375 C 4.441406 -27.582031 4.125 -26.53125 4.09375 -25.6875 C 4.0625 -24.851562 4.78125 -24.554688 6.25 -24.796875 C 6.582031 -24.890625 6.945312 -25 7.34375 -25.125 C 7.894531 -25.332031 8.519531 -25.519531 9.21875 -25.6875 C 9.925781 -25.863281 10.847656 -25.90625 11.984375 -25.8125 C 13.335938 -25.75 14.234375 -25.128906 14.671875 -23.953125 C 15.117188 -22.773438 15.3125 -21.296875 15.25 -19.515625 C 15.1875 -17.742188 15.019531 -15.9375 14.75 -14.09375 C 14.40625 -11.800781 14.234375 -9.832031 14.234375 -8.1875 C 14.234375 -6.550781 14.707031 -5.597656 15.65625 -5.328125 C 16.914062 -4.992188 18.789062 -6.132812 21.28125 -8.75 C 23.78125 -11.363281 26.453125 -15.78125 29.296875 -22 Z M 29.296875 -22 "/></g></g></g><g fill="#231f20" fill-opacity="1"><g transform="translate(241.88324, 209.521749)"><g><path d="M 51.96875 -23.609375 C 51.125 -21.035156 49.453125 -18.085938 46.953125 -14.765625 C 44.460938 -11.441406 41.347656 -9.304688 37.609375 -8.359375 C 33.878906 -7.410156 30.648438 -7.539062 27.921875 -8.75 C 25.203125 -9.957031 23.703125 -13.195312 23.421875 -18.46875 C 20.328125 -12.46875 17.378906 -8.625 14.578125 -6.9375 C 11.773438 -5.25 8.859375 -4.601562 5.828125 -5 C 2.398438 -5.550781 0.0820312 -6.882812 -1.125 -9 C -2.332031 -11.113281 -2.738281 -13.554688 -2.34375 -16.328125 C -1.945312 -19.097656 -1.101562 -21.753906 0.1875 -24.296875 C 1.195312 -26.191406 2.597656 -27.953125 4.390625 -29.578125 C 6.179688 -31.203125 8.054688 -32.472656 10.015625 -33.390625 C 12.429688 -34.617188 14.863281 -35.203125 17.3125 -35.140625 C 19.757812 -35.078125 22.378906 -34.265625 25.171875 -32.703125 C 25.234375 -32.640625 25.265625 -32.703125 25.265625 -32.890625 C 25.265625 -33.160156 25.332031 -33.5 25.46875 -33.90625 C 25.601562 -34.320312 25.835938 -34.65625 26.171875 -34.90625 C 27.097656 -35.582031 28.1875 -35.921875 29.4375 -35.921875 C 30.695312 -35.921875 31.660156 -35.289062 32.328125 -34.03125 C 32.453125 -32.40625 32.285156 -30.335938 31.828125 -27.828125 C 30.816406 -22.316406 30.816406 -18.351562 31.828125 -15.9375 C 32.835938 -13.519531 34.617188 -12.394531 37.171875 -12.5625 C 39.734375 -12.726562 43.050781 -15.253906 47.125 -20.140625 C 51.195312 -25.023438 52.8125 -26.179688 51.96875 -23.609375 Z M 6.75 -10.65625 C 8.15625 -9.644531 9.769531 -9.78125 11.59375 -11.0625 C 13.414062 -12.351562 15.164062 -14.175781 16.84375 -16.53125 C 18.53125 -18.894531 19.945312 -21.253906 21.09375 -23.609375 C 22.25 -25.960938 22.890625 -27.707031 23.015625 -28.84375 C 19.578125 -30.675781 16.632812 -30.988281 14.1875 -29.78125 C 11.738281 -28.570312 9.785156 -26.597656 8.328125 -23.859375 C 6.878906 -21.117188 6.015625 -18.453125 5.734375 -15.859375 C 5.460938 -13.273438 5.800781 -11.539062 6.75 -10.65625 Z M 6.75 -10.65625 "/></g></g></g><g clip-path="url(#c36b653d56)"><g clip-path="url(#ed5f336b4a)"><g clip-path="url(#6529102f85)"><g clip-path="url(#c02ca9520b)"><path fill="#231f20" d="M 65.773438 131.328125 C 65.039062 130.554688 63.820312 130.511719 63.039062 131.242188 C 62.261719 131.972656 62.21875 133.1875 62.949219 133.964844 C 67.496094 138.800781 71.507812 142.507812 75.78125 145.460938 L 75.902344 145.539062 C 80.160156 148.46875 84.640625 150.625 90.097656 152.378906 C 125.078125 163.628906 171.265625 148.484375 216.289062 133.71875 C 278.878906 113.191406 339.1875 93.414062 361.234375 148.113281 C 361.628906 149.09375 362.753906 149.582031 363.746094 149.179688 C 364.742188 148.789062 365.222656 147.664062 364.820312 146.675781 C 341.425781 88.636719 279.4375 108.964844 215.089844 130.066406 C 170.648438 144.644531 125.070312 159.597656 91.269531 148.726562 C 86.183594 147.089844 82.023438 145.089844 78.089844 142.386719 L 77.980469 142.300781 C 73.980469 139.53125 70.152344 135.996094 65.777344 131.335938 Z M 65.773438 131.328125 " fill-opacity="1" fill-rule="evenodd"/></g></g></g></g><g fill="#231f20" fill-opacity="1"><g transform="translate(122.184028, 237.020256)"><g><path d="M 5.0625 -4.4375 L 0.359375 -12.671875 L 1.90625 -12.671875 L 5.703125 -5.875 L 5.796875 -5.875 L 9.59375 -12.671875 L 11.125 -12.671875 L 6.421875 -4.4375 L 6.421875 0 L 5.0625 0 Z M 5.0625 -4.4375 "/></g></g></g><g fill="#231f20" fill-opacity="1"><g transform="translate(145.245727, 237.020256)"><g><path d="M 5.609375 -12.671875 L 6.875 -12.671875 L 12.125 0 L 10.671875 0 L 9.234375 -3.53125 L 3.25 -3.53125 L 1.8125 0 L 0.359375 0 Z M 8.6875 -4.796875 L 6.25 -10.765625 L 3.796875 -4.796875 Z M 8.6875 -4.796875 "/></g></g></g><g fill="#231f20" fill-opacity="1"><g transform="translate(169.302028, 237.020256)"><g><path d="M 7.59375 0.1875 C 6.695312 0.1875 5.851562 0.0195312 5.0625 -0.3125 C 4.269531 -0.65625 3.578125 -1.125 2.984375 -1.71875 C 2.390625 -2.3125 1.921875 -3 1.578125 -3.78125 C 1.242188 -4.570312 1.078125 -5.421875 1.078125 -6.328125 C 1.078125 -7.234375 1.242188 -8.082031 1.578125 -8.875 C 1.921875 -9.664062 2.390625 -10.351562 2.984375 -10.9375 C 3.578125 -11.53125 4.269531 -11.992188 5.0625 -12.328125 C 5.851562 -12.671875 6.695312 -12.84375 7.59375 -12.84375 C 8.46875 -12.84375 9.222656 -12.703125 9.859375 -12.421875 C 10.492188 -12.148438 11.03125 -11.851562 11.46875 -11.53125 C 11.96875 -11.144531 12.394531 -10.707031 12.75 -10.21875 L 11.84375 -9.40625 C 11.5625 -9.820312 11.210938 -10.1875 10.796875 -10.5 C 10.453125 -10.769531 10.015625 -11.015625 9.484375 -11.234375 C 8.953125 -11.460938 8.320312 -11.578125 7.59375 -11.578125 C 6.875 -11.578125 6.195312 -11.441406 5.5625 -11.171875 C 4.9375 -10.910156 4.390625 -10.546875 3.921875 -10.078125 C 3.460938 -9.609375 3.097656 -9.050781 2.828125 -8.40625 C 2.566406 -7.769531 2.4375 -7.078125 2.4375 -6.328125 C 2.4375 -5.585938 2.566406 -4.894531 2.828125 -4.25 C 3.097656 -3.613281 3.460938 -3.054688 3.921875 -2.578125 C 4.390625 -2.109375 4.9375 -1.738281 5.5625 -1.46875 C 6.195312 -1.207031 6.875 -1.078125 7.59375 -1.078125 C 8.320312 -1.078125 8.957031 -1.1875 9.5 -1.40625 C 10.039062 -1.632812 10.492188 -1.890625 10.859375 -2.171875 C 11.273438 -2.484375 11.632812 -2.84375 11.9375 -3.25 L 12.84375 -2.4375 C 12.46875 -1.945312 12.019531 -1.507812 11.5 -1.125 C 11.0625 -0.800781 10.519531 -0.5 9.875 -0.21875 C 9.226562 0.0507812 8.46875 0.1875 7.59375 0.1875 Z M 7.59375 0.1875 "/></g></g></g><g fill="#231f20" fill-opacity="1"><g transform="translate(194.443386, 237.020256)"><g><path d="M 1.90625 -12.671875 L 3.25 -12.671875 L 3.25 -7.0625 L 10.3125 -7.0625 L 10.3125 -12.671875 L 11.671875 -12.671875 L 11.671875 0 L 10.3125 0 L 10.3125 -5.796875 L 3.25 -5.796875 L 3.25 0 L 1.90625 0 Z M 1.90625 -12.671875 "/></g></g></g><g fill="#231f20" fill-opacity="1"><g transform="translate(219.584745, 237.020256)"><g><path d="M 1.90625 -12.671875 L 10.578125 -12.671875 L 10.578125 -11.40625 L 3.25 -11.40625 L 3.25 -7.234375 L 9.140625 -7.234375 L 9.140625 -5.96875 L 3.25 -5.96875 L 3.25 -1.265625 L 10.765625 -1.265625 L 10.765625 0 L 1.90625 0 Z M 1.90625 -12.671875 "/></g></g></g><g fill="#231f20" fill-opacity="1"><g transform="translate(242.736851, 237.020256)"><g><path d="M 1.90625 -12.671875 L 3.25 -12.671875 L 3.25 -1.265625 L 9.765625 -1.265625 L 9.765625 0 L 1.90625 0 Z M 1.90625 -12.671875 "/></g></g></g><g fill="#231f20" fill-opacity="1"><g transform="translate(264.44226, 237.020256)"><g><path d="M 1.90625 -12.671875 L 3.25 -12.671875 L 3.25 0 L 1.90625 0 Z M 1.90625 -12.671875 "/></g></g></g><g fill="#231f20" fill-opacity="1"><g transform="translate(281.174574, 237.020256)"><g><path d="M 1.90625 -12.671875 L 3.078125 -12.671875 L 10.859375 -2.4375 L 10.859375 -12.671875 L 12.21875 -12.671875 L 12.21875 0 L 11.03125 0 L 3.25 -10.21875 L 3.25 0 L 1.90625 0 Z M 1.90625 -12.671875 "/></g></g></g><g fill="#231f20" fill-opacity="1"><g transform="translate(306.858446, 237.020256)"><g><path d="M 1.90625 -12.671875 L 3.25 -12.671875 L 3.25 0 L 1.90625 0 Z M 1.90625 -12.671875 "/></g></g></g></svg>