<svg xmlns="http://www.w3.org/2000/svg" xmlns:xlink="http://www.w3.org/1999/xlink" width="500" zoomAndPan="magnify" viewBox="0 0 375 374.999991" height="500" preserveAspectRatio="xMidYMid meet" version="1.0"><defs><g/><clipPath id="7bbee22feb"><path d="M 55 129 L 366 129 L 366 179 L 55 179 Z M 55 129 " clip-rule="nonzero"/></clipPath><clipPath id="9f42c5752a"><path d="M 52.628906 128.429688 L 362.433594 107.691406 L 366.691406 171.300781 L 56.886719 192.039062 Z M 52.628906 128.429688 " clip-rule="nonzero"/></clipPath><clipPath id="e99f2899f7"><path d="M 56.902344 192.296875 L 366.710938 171.558594 L 362.453125 107.949219 L 52.644531 128.6875 Z M 56.902344 192.296875 " clip-rule="nonzero"/></clipPath></defs><g fill="#ffffff" fill-opacity="1"><g transform="translate(38.592469, 233.141306)"><g><path d="M 78.59375 -27.78125 C 79.34375 -27.90625 80.117188 -27.953125 80.921875 -27.921875 C 81.722656 -27.890625 82.5 -27.671875 83.25 -27.265625 C 83.375 -27.140625 83.488281 -26.921875 83.59375 -26.609375 C 83.707031 -26.296875 83.796875 -26 83.859375 -25.71875 C 83.859375 -25.59375 83.785156 -25.441406 83.640625 -25.265625 C 83.503906 -25.085938 83.375 -24.921875 83.25 -24.765625 C 82.90625 -24.578125 82.5625 -24.4375 82.21875 -24.34375 C 77.726562 -23.46875 73.570312 -21.976562 69.75 -19.875 C 65.925781 -17.78125 62.289062 -15.351562 58.84375 -12.59375 C 54.144531 -8.925781 49.8125 -4.90625 45.84375 -0.53125 C 41.882812 3.832031 38.148438 8.394531 34.640625 13.15625 C 27.960938 22.125 21.757812 31.429688 16.03125 41.078125 C 14.707031 43.304688 13.359375 45.484375 11.984375 47.609375 C 11.796875 48.023438 11.5625 48.40625 11.28125 48.75 C 10.65625 49.78125 9.96875 50.75 9.21875 51.65625 C 7.207031 53.789062 4.851562 54.304688 2.15625 53.203125 C 1.0625 52.640625 0.425781 51.894531 0.25 50.96875 C 0.0820312 50.050781 0.109375 49.070312 0.328125 48.03125 C 1.828125 34.4375 2.722656 20.851562 3.015625 7.28125 C 3.546875 -10.925781 3.894531 -29.128906 4.0625 -47.328125 C 4.238281 -65.535156 3.953125 -83.726562 3.203125 -101.90625 C 2.722656 -112.8125 2.109375 -123.75 1.359375 -134.71875 C 1.015625 -139.726562 0.671875 -144.753906 0.328125 -149.796875 C 0.328125 -150.210938 0.28125 -150.59375 0.1875 -150.9375 C 0.125 -151.96875 0.09375 -153 0.09375 -154.03125 C 0.25 -155.632812 1.140625 -156.53125 2.765625 -156.71875 C 3.742188 -156.875 4.613281 -156.78125 5.375 -156.4375 C 6.144531 -156.09375 6.59375 -155.570312 6.71875 -154.875 C 7.34375 -152.3125 7.796875 -149.726562 8.078125 -147.125 C 8.078125 -146.375 8.109375 -145.609375 8.171875 -144.828125 C 9.210938 -130.628906 10.109375 -116.429688 10.859375 -102.234375 C 11.609375 -88.160156 11.96875 -74.070312 11.9375 -59.96875 C 11.90625 -45.875 11.71875 -31.757812 11.375 -17.625 C 11.15625 -6.0625 10.84375 5.515625 10.4375 17.109375 C 10.375 19.804688 10.234375 22.484375 10.015625 25.140625 C 9.890625 26.679688 9.796875 28.203125 9.734375 29.703125 C 9.671875 31.023438 9.59375 32.375 9.5 33.75 C 9.5 34.375 9.46875 35 9.40625 35.625 C 9.625 35.6875 9.796875 35.75 9.921875 35.8125 C 10.140625 35.8125 10.34375 35.84375 10.53125 35.90625 C 10.875 35.375 11.21875 34.859375 11.5625 34.359375 C 12.46875 32.921875 13.410156 31.476562 14.390625 30.03125 C 20.773438 19.820312 27.835938 10.140625 35.578125 0.984375 C 39.492188 -3.648438 43.675781 -7.945312 48.125 -11.90625 C 52.582031 -15.875 57.457031 -19.378906 62.75 -22.421875 C 65.257812 -23.796875 67.804688 -24.960938 70.390625 -25.921875 C 72.972656 -26.878906 75.707031 -27.5 78.59375 -27.78125 Z M 78.59375 -27.78125 "/></g></g></g><g fill="#ffffff" fill-opacity="1"><g transform="translate(114.6893, 233.141306)"><g><path d="M 53.1875 -24.15625 C 52.320312 -21.53125 50.613281 -18.515625 48.0625 -15.109375 C 45.507812 -11.710938 42.320312 -9.523438 38.5 -8.546875 C 34.675781 -7.578125 31.367188 -7.710938 28.578125 -8.953125 C 25.785156 -10.191406 24.25 -13.503906 23.96875 -18.890625 C 20.800781 -12.753906 17.785156 -8.820312 14.921875 -7.09375 C 12.054688 -5.375 9.070312 -4.71875 5.96875 -5.125 C 2.457031 -5.6875 0.0820312 -7.046875 -1.15625 -9.203125 C -2.394531 -11.367188 -2.804688 -13.867188 -2.390625 -16.703125 C -1.984375 -19.546875 -1.125 -22.265625 0.1875 -24.859375 C 1.21875 -26.804688 2.648438 -28.609375 4.484375 -30.265625 C 6.316406 -31.929688 8.238281 -33.234375 10.25 -34.171875 C 12.71875 -35.421875 15.207031 -36.015625 17.71875 -35.953125 C 20.226562 -35.890625 22.910156 -35.0625 25.765625 -33.46875 C 25.828125 -33.40625 25.859375 -33.46875 25.859375 -33.65625 C 25.859375 -33.9375 25.925781 -34.285156 26.0625 -34.703125 C 26.207031 -35.128906 26.453125 -35.46875 26.796875 -35.71875 C 27.734375 -36.40625 28.84375 -36.75 30.125 -36.75 C 31.414062 -36.75 32.40625 -36.109375 33.09375 -34.828125 C 33.21875 -33.171875 33.046875 -31.054688 32.578125 -28.484375 C 31.535156 -22.847656 31.53125 -18.789062 32.5625 -16.3125 C 33.601562 -13.832031 35.429688 -12.675781 38.046875 -12.84375 C 40.660156 -13.019531 44.050781 -15.609375 48.21875 -20.609375 C 52.394531 -25.609375 54.050781 -26.789062 53.1875 -24.15625 Z M 6.90625 -10.90625 C 8.351562 -9.875 10.007812 -10.015625 11.875 -11.328125 C 13.738281 -12.640625 15.53125 -14.503906 17.25 -16.921875 C 18.976562 -19.335938 20.425781 -21.75 21.59375 -24.15625 C 22.769531 -26.570312 23.421875 -28.359375 23.546875 -29.515625 C 20.035156 -31.398438 17.023438 -31.722656 14.515625 -30.484375 C 12.015625 -29.242188 10.019531 -27.222656 8.53125 -24.421875 C 7.039062 -21.617188 6.15625 -18.890625 5.875 -16.234375 C 5.59375 -13.585938 5.9375 -11.8125 6.90625 -10.90625 Z M 6.90625 -10.90625 "/></g></g></g><g fill="#ffffff" fill-opacity="1"><g transform="translate(164.511801, 233.141306)"><g><path d="M 48.609375 -23.640625 C 49.296875 -23.578125 49.175781 -22.628906 48.25 -20.796875 C 47.320312 -18.960938 45.800781 -16.851562 43.6875 -14.46875 C 41.570312 -12.09375 39.207031 -10.039062 36.59375 -8.3125 C 33.976562 -6.59375 31.367188 -5.8125 28.765625 -5.96875 C 26.828125 -6.15625 25.394531 -6.734375 24.46875 -7.703125 C 23.539062 -8.679688 22.90625 -9.753906 22.5625 -10.921875 C 22.21875 -12.097656 22 -13.125 21.90625 -14 C 21.84375 -14.632812 21.765625 -15.109375 21.671875 -15.421875 C 21.578125 -15.734375 21.390625 -15.75 21.109375 -15.46875 C 19.097656 -10.863281 15.617188 -8.5625 10.671875 -8.5625 C 7.910156 -8.5625 5.664062 -9.78125 3.9375 -12.21875 C 2.21875 -14.664062 1.128906 -17.726562 0.671875 -21.40625 C 0.222656 -25.09375 0.578125 -28.832031 1.734375 -32.625 C 2.015625 -33.875 2.785156 -34.734375 4.046875 -35.203125 C 4.921875 -35.546875 5.828125 -35.515625 6.765625 -35.109375 C 7.703125 -34.703125 8.203125 -34.09375 8.265625 -33.28125 C 8.265625 -32.4375 8.203125 -31.601562 8.078125 -30.78125 C 7.921875 -30.15625 7.8125 -29.5625 7.75 -29 C 7.625 -26.75 7.660156 -24.273438 7.859375 -21.578125 C 8.066406 -18.878906 8.785156 -16.578125 10.015625 -14.671875 C 11.203125 -13.128906 12.515625 -12.929688 13.953125 -14.078125 C 15.398438 -15.222656 16.671875 -17 17.765625 -19.40625 C 18.609375 -21.320312 19.273438 -23.226562 19.765625 -25.125 C 20.253906 -27.019531 20.5625 -28.484375 20.6875 -29.515625 C 20.8125 -29.953125 20.875 -30.234375 20.875 -30.359375 C 21.09375 -31.179688 21.3125 -31.984375 21.53125 -32.765625 C 21.875 -33.921875 22.21875 -35.046875 22.5625 -36.140625 C 23.15625 -38.273438 24.660156 -39.171875 27.078125 -38.828125 C 28.546875 -38.703125 29.34375 -37.976562 29.46875 -36.65625 C 29.59375 -34.875 29.625 -33.09375 29.5625 -31.3125 C 29.5 -29.425781 29.40625 -27.59375 29.28125 -25.8125 C 29.125 -23.207031 29.015625 -20.617188 28.953125 -18.046875 C 28.890625 -14.316406 29.632812 -12.144531 31.1875 -11.53125 C 32.738281 -10.925781 34.632812 -11.328125 36.875 -12.734375 C 39.113281 -14.148438 41.269531 -16.0625 43.34375 -18.46875 C 43.53125 -18.6875 43.765625 -18.96875 44.046875 -19.3125 C 44.453125 -19.851562 44.953125 -20.453125 45.546875 -21.109375 C 46.140625 -21.765625 46.707031 -22.332031 47.25 -22.8125 C 47.800781 -23.300781 48.253906 -23.578125 48.609375 -23.640625 Z M 48.609375 -23.640625 "/></g></g></g><g fill="#ffffff" fill-opacity="1"><g transform="translate(210.339113, 233.141306)"><g><path d="M 29.984375 -22.515625 C 30.578125 -23.734375 30.984375 -24.296875 31.203125 -24.203125 C 31.429688 -24.109375 31.488281 -23.613281 31.375 -22.71875 C 31.269531 -21.832031 31.070312 -20.820312 30.78125 -19.6875 C 30.375 -17.96875 29.671875 -15.972656 28.671875 -13.703125 C 27.671875 -11.429688 26.554688 -9.367188 25.328125 -7.515625 C 23.515625 -4.953125 21.269531 -3.019531 18.59375 -1.71875 C 15.914062 -0.414062 13.484375 -0.09375 11.296875 -0.75 C 9.117188 -1.40625 7.859375 -3.457031 7.515625 -6.90625 C 7.453125 -9.789062 7.703125 -12.957031 8.265625 -16.40625 C 8.460938 -17.84375 8.671875 -19.253906 8.890625 -20.640625 C 8.890625 -21.140625 8.757812 -21.519531 8.5 -21.78125 C 8.25 -22.050781 7.921875 -22.15625 7.515625 -22.09375 C 7.234375 -22.09375 6.921875 -22.09375 6.578125 -22.09375 C 4.859375 -21.8125 3.101562 -21.84375 1.3125 -22.1875 C -0.8125 -22.8125 -2.046875 -23.867188 -2.390625 -25.359375 C -2.742188 -26.847656 -2.710938 -28.800781 -2.296875 -31.21875 C -2.078125 -32.9375 -1.4375 -34.222656 -0.375 -35.078125 C 0.6875 -35.941406 1.941406 -36.296875 3.390625 -36.140625 C 5.390625 -35.953125 6.359375 -35.1875 6.296875 -33.84375 C 6.234375 -32.5 5.859375 -31.054688 5.171875 -29.515625 C 4.546875 -28.234375 4.21875 -27.160156 4.1875 -26.296875 C 4.15625 -25.429688 4.890625 -25.125 6.390625 -25.375 C 6.734375 -25.476562 7.109375 -25.59375 7.515625 -25.71875 C 8.078125 -25.9375 8.71875 -26.128906 9.4375 -26.296875 C 10.164062 -26.472656 11.109375 -26.515625 12.265625 -26.421875 C 13.648438 -26.359375 14.566406 -25.722656 15.015625 -24.515625 C 15.472656 -23.304688 15.671875 -21.789062 15.609375 -19.96875 C 15.546875 -18.15625 15.375 -16.3125 15.09375 -14.4375 C 14.75 -12.082031 14.578125 -10.066406 14.578125 -8.390625 C 14.578125 -6.710938 15.0625 -5.734375 16.03125 -5.453125 C 17.3125 -5.109375 19.226562 -6.273438 21.78125 -8.953125 C 24.34375 -11.628906 27.078125 -16.148438 29.984375 -22.515625 Z M 29.984375 -22.515625 "/></g></g></g><g fill="#ffffff" fill-opacity="1"><g transform="translate(239.104558, 233.141306)"><g><path d="M 53.1875 -24.15625 C 52.320312 -21.53125 50.613281 -18.515625 48.0625 -15.109375 C 45.507812 -11.710938 42.320312 -9.523438 38.5 -8.546875 C 34.675781 -7.578125 31.367188 -7.710938 28.578125 -8.953125 C 25.785156 -10.191406 24.25 -13.503906 23.96875 -18.890625 C 20.800781 -12.753906 17.785156 -8.820312 14.921875 -7.09375 C 12.054688 -5.375 9.070312 -4.71875 5.96875 -5.125 C 2.457031 -5.6875 0.0820312 -7.046875 -1.15625 -9.203125 C -2.394531 -11.367188 -2.804688 -13.867188 -2.390625 -16.703125 C -1.984375 -19.546875 -1.125 -22.265625 0.1875 -24.859375 C 1.21875 -26.804688 2.648438 -28.609375 4.484375 -30.265625 C 6.316406 -31.929688 8.238281 -33.234375 10.25 -34.171875 C 12.71875 -35.421875 15.207031 -36.015625 17.71875 -35.953125 C 20.226562 -35.890625 22.910156 -35.0625 25.765625 -33.46875 C 25.828125 -33.40625 25.859375 -33.46875 25.859375 -33.65625 C 25.859375 -33.9375 25.925781 -34.285156 26.0625 -34.703125 C 26.207031 -35.128906 26.453125 -35.46875 26.796875 -35.71875 C 27.734375 -36.40625 28.84375 -36.75 30.125 -36.75 C 31.414062 -36.75 32.40625 -36.109375 33.09375 -34.828125 C 33.21875 -33.171875 33.046875 -31.054688 32.578125 -28.484375 C 31.535156 -22.847656 31.53125 -18.789062 32.5625 -16.3125 C 33.601562 -13.832031 35.429688 -12.675781 38.046875 -12.84375 C 40.660156 -13.019531 44.050781 -15.609375 48.21875 -20.609375 C 52.394531 -25.609375 54.050781 -26.789062 53.1875 -24.15625 Z M 6.90625 -10.90625 C 8.351562 -9.875 10.007812 -10.015625 11.875 -11.328125 C 13.738281 -12.640625 15.53125 -14.503906 17.25 -16.921875 C 18.976562 -19.335938 20.425781 -21.75 21.59375 -24.15625 C 22.769531 -26.570312 23.421875 -28.359375 23.546875 -29.515625 C 20.035156 -31.398438 17.023438 -31.722656 14.515625 -30.484375 C 12.015625 -29.242188 10.019531 -27.222656 8.53125 -24.421875 C 7.039062 -21.617188 6.15625 -18.890625 5.875 -16.234375 C 5.59375 -13.585938 5.9375 -11.8125 6.90625 -10.90625 Z M 6.90625 -10.90625 "/></g></g></g><g clip-path="url(#7bbee22feb)"><g clip-path="url(#9f42c5752a)"><g clip-path="url(#e99f2899f7)"><path fill="#ffffff" d="M 58.859375 152.945312 C 58.109375 152.148438 56.859375 152.105469 56.0625 152.855469 C 55.261719 153.605469 55.21875 154.855469 55.96875 155.652344 C 60.628906 160.628906 64.738281 164.4375 69.117188 167.476562 L 69.242188 167.558594 C 73.605469 170.570312 78.191406 172.789062 83.785156 174.59375 C 119.625 186.171875 166.933594 170.613281 213.054688 155.441406 C 277.167969 134.347656 338.945312 114.027344 361.542969 170.277344 C 361.945312 171.289062 363.101562 171.785156 364.117188 171.375 C 365.136719 170.972656 365.628906 169.820312 365.21875 168.800781 C 341.238281 109.117188 277.738281 130.003906 211.828125 151.6875 C 166.300781 166.664062 119.613281 182.023438 84.984375 170.839844 C 79.773438 169.15625 75.511719 167.097656 71.484375 164.316406 L 71.367188 164.230469 C 67.269531 161.382812 63.347656 157.742188 58.867188 152.953125 Z M 58.859375 152.945312 " fill-opacity="1" fill-rule="evenodd"/></g></g></g><g fill="#ffffff" fill-opacity="1"><g transform="translate(116.613336, 261.28115)"><g><path d="M 5.1875 -4.53125 L 0.375 -12.953125 L 1.9375 -12.953125 L 5.828125 -6.015625 L 5.921875 -6.015625 L 9.8125 -12.953125 L 11.390625 -12.953125 L 6.578125 -4.53125 L 6.578125 0 L 5.1875 0 Z M 5.1875 -4.53125 "/></g></g></g><g fill="#ffffff" fill-opacity="1"><g transform="translate(140.212954, 261.28115)"><g><path d="M 5.734375 -12.953125 L 7.03125 -12.953125 L 12.40625 0 L 10.921875 0 L 9.4375 -3.609375 L 3.328125 -3.609375 L 1.84375 0 L 0.375 0 Z M 8.890625 -4.90625 L 6.390625 -11.015625 L 3.890625 -4.90625 Z M 8.890625 -4.90625 "/></g></g></g><g fill="#ffffff" fill-opacity="1"><g transform="translate(164.830373, 261.28115)"><g><path d="M 7.78125 0.1875 C 6.851562 0.1875 5.984375 0.015625 5.171875 -0.328125 C 4.367188 -0.679688 3.660156 -1.160156 3.046875 -1.765625 C 2.441406 -2.367188 1.96875 -3.070312 1.625 -3.875 C 1.28125 -4.6875 1.109375 -5.554688 1.109375 -6.484375 C 1.109375 -7.410156 1.28125 -8.273438 1.625 -9.078125 C 1.96875 -9.890625 2.441406 -10.597656 3.046875 -11.203125 C 3.660156 -11.804688 4.367188 -12.28125 5.171875 -12.625 C 5.984375 -12.96875 6.851562 -13.140625 7.78125 -13.140625 C 8.664062 -13.140625 9.4375 -13 10.09375 -12.71875 C 10.75 -12.4375 11.296875 -12.128906 11.734375 -11.796875 C 12.242188 -11.398438 12.679688 -10.957031 13.046875 -10.46875 L 12.125 -9.625 C 11.832031 -10.039062 11.472656 -10.410156 11.046875 -10.734375 C 10.691406 -11.023438 10.242188 -11.28125 9.703125 -11.5 C 9.160156 -11.726562 8.519531 -11.84375 7.78125 -11.84375 C 7.039062 -11.84375 6.347656 -11.707031 5.703125 -11.4375 C 5.054688 -11.164062 4.492188 -10.789062 4.015625 -10.3125 C 3.546875 -9.832031 3.175781 -9.265625 2.90625 -8.609375 C 2.632812 -7.953125 2.5 -7.242188 2.5 -6.484375 C 2.5 -5.710938 2.632812 -5 2.90625 -4.34375 C 3.175781 -3.695312 3.546875 -3.128906 4.015625 -2.640625 C 4.492188 -2.160156 5.054688 -1.785156 5.703125 -1.515625 C 6.347656 -1.242188 7.039062 -1.109375 7.78125 -1.109375 C 8.519531 -1.109375 9.164062 -1.222656 9.71875 -1.453125 C 10.269531 -1.679688 10.734375 -1.9375 11.109375 -2.21875 C 11.535156 -2.539062 11.90625 -2.910156 12.21875 -3.328125 L 13.140625 -2.5 C 12.765625 -1.988281 12.3125 -1.535156 11.78125 -1.140625 C 11.320312 -0.804688 10.757812 -0.5 10.09375 -0.21875 C 9.4375 0.0507812 8.664062 0.1875 7.78125 0.1875 Z M 7.78125 0.1875 "/></g></g></g><g fill="#ffffff" fill-opacity="1"><g transform="translate(190.558159, 261.28115)"><g><path d="M 1.9375 -12.953125 L 3.328125 -12.953125 L 3.328125 -7.21875 L 10.546875 -7.21875 L 10.546875 -12.953125 L 11.9375 -12.953125 L 11.9375 0 L 10.546875 0 L 10.546875 -5.921875 L 3.328125 -5.921875 L 3.328125 0 L 1.9375 0 Z M 1.9375 -12.953125 "/></g></g></g><g fill="#ffffff" fill-opacity="1"><g transform="translate(216.285944, 261.28115)"><g><path d="M 1.9375 -12.953125 L 10.828125 -12.953125 L 10.828125 -11.671875 L 3.328125 -11.671875 L 3.328125 -7.40625 L 9.34375 -7.40625 L 9.34375 -6.109375 L 3.328125 -6.109375 L 3.328125 -1.296875 L 11.015625 -1.296875 L 11.015625 0 L 1.9375 0 Z M 1.9375 -12.953125 "/></g></g></g><g fill="#ffffff" fill-opacity="1"><g transform="translate(239.978078, 261.28115)"><g><path d="M 1.9375 -12.953125 L 3.328125 -12.953125 L 3.328125 -1.296875 L 10 -1.296875 L 10 0 L 1.9375 0 Z M 1.9375 -12.953125 "/></g></g></g><g fill="#ffffff" fill-opacity="1"><g transform="translate(262.189771, 261.28115)"><g><path d="M 1.9375 -12.953125 L 3.328125 -12.953125 L 3.328125 0 L 1.9375 0 Z M 1.9375 -12.953125 "/></g></g></g><g fill="#ffffff" fill-opacity="1"><g transform="translate(279.312369, 261.28115)"><g><path d="M 1.9375 -12.953125 L 3.140625 -12.953125 L 11.109375 -2.5 L 11.109375 -12.953125 L 12.5 -12.953125 L 12.5 0 L 11.296875 0 L 3.328125 -10.46875 L 3.328125 0 L 1.9375 0 Z M 1.9375 -12.953125 "/></g></g></g><g fill="#ffffff" fill-opacity="1"><g transform="translate(305.595323, 261.28115)"><g><path d="M 1.9375 -12.953125 L 3.328125 -12.953125 L 3.328125 0 L 1.9375 0 Z M 1.9375 -12.953125 "/></g></g></g></svg>