<svg xmlns="http://www.w3.org/2000/svg" xmlns:xlink="http://www.w3.org/1999/xlink" width="191" zoomAndPan="magnify" viewBox="0 0 143.25 153.749995" height="205" preserveAspectRatio="xMidYMid meet" version="1.0"><defs><clipPath id="ec40c1a621"><path d="M 11.449219 16.945312 L 130.914062 16.945312 L 130.914062 136.410156 L 11.449219 136.410156 Z M 11.449219 16.945312 " clip-rule="nonzero"/></clipPath><clipPath id="6bea3f3481"><path d="M 71.183594 16.945312 C 38.191406 16.945312 11.449219 43.691406 11.449219 76.679688 C 11.449219 109.667969 38.191406 136.410156 71.183594 136.410156 C 104.171875 136.410156 130.914062 109.667969 130.914062 76.679688 C 130.914062 43.691406 104.171875 16.945312 71.183594 16.945312 Z M 71.183594 16.945312 " clip-rule="nonzero"/></clipPath><clipPath id="e9b0067f62"><path d="M 35.363281 86.003906 L 107.761719 86.003906 L 107.761719 116.847656 L 35.363281 116.847656 Z M 35.363281 86.003906 " clip-rule="nonzero"/></clipPath><clipPath id="f3cc71fef2"><path d="M 76.949219 41.664062 L 113.175781 41.664062 L 113.175781 81.746094 L 76.949219 81.746094 Z M 76.949219 41.664062 " clip-rule="nonzero"/></clipPath><clipPath id="c2b493dfac"><path d="M 29.113281 56 L 71 56 L 71 90 L 29.113281 90 Z M 29.113281 56 " clip-rule="nonzero"/></clipPath><clipPath id="aca3c9076f"><path d="M 66.75 0.277344 L 142.347656 0.277344 L 142.347656 101.222656 L 66.75 101.222656 Z M 66.75 0.277344 " clip-rule="nonzero"/></clipPath><clipPath id="0dc7d07253"><path d="M 0.578125 95.25 L 99.175781 95.25 L 99.175781 147.675781 L 0.578125 147.675781 Z M 0.578125 95.25 " clip-rule="nonzero"/></clipPath></defs><g clip-path="url(#ec40c1a621)"><g clip-path="url(#6bea3f3481)"><path fill="#05bd93" d="M 11.449219 16.945312 L 130.914062 16.945312 L 130.914062 136.410156 L 11.449219 136.410156 Z M 11.449219 16.945312 " fill-opacity="1" fill-rule="nonzero"/></g></g><g clip-path="url(#e9b0067f62)"><path fill="#ffffff" d="M 107.734375 86.035156 L 106.167969 86.054688 C 105.707031 89.867188 102.472656 106.007812 80.386719 108.636719 L 83.53125 111.925781 C 81.34375 112.730469 77.132812 113.863281 70.820312 113.863281 C 64.503906 113.863281 60.296875 112.726562 58.109375 111.925781 L 61.253906 108.636719 C 36.40625 105.214844 35.402344 86.054688 35.402344 86.054688 C 35.402344 86.054688 34.738281 104.28125 55.402344 110.433594 L 53.183594 112.757812 L 54.792969 113.714844 C 55.007812 113.84375 60.183594 116.847656 70.820312 116.847656 C 81.457031 116.847656 86.632812 113.84375 86.847656 113.714844 L 88.460938 112.757812 L 86.238281 110.433594 C 96.996094 107.597656 102.25 101.542969 104.789062 96.789062 C 107.765625 91.210938 107.734375 86.242188 107.734375 86.035156 " fill-opacity="1" fill-rule="nonzero"/></g><path fill="#ffffff" d="M 71.59375 76.933594 C 59.578125 69.378906 62.175781 52.738281 62.175781 52.738281 C 62.820312 68.453125 69.738281 73.261719 73.8125 74.730469 C 74.609375 73.066406 75.378906 71.0625 75.648438 69.285156 C 76.441406 64.027344 74.289062 58.203125 70.363281 54.660156 C 66.5625 51.226562 63.121094 48.726562 63.21875 43.238281 C 62.355469 44.679688 61.542969 45.984375 60.589844 47.449219 C 47.144531 68.160156 67.171875 77.015625 69.800781 76.765625 C 70.488281 76.9375 71.078125 77.011719 71.59375 76.933594 " fill-opacity="1" fill-rule="nonzero"/><g clip-path="url(#f3cc71fef2)"><path fill="#ffffff" d="M 78.335938 79.644531 C 99.148438 78.117188 107.246094 54.714844 107.246094 54.714844 C 95.578125 74.675781 83.28125 76.148438 76.972656 75.25 C 77.089844 72.539062 77.46875 69.40625 78.34375 66.917969 C 80.9375 59.539062 87.75 53.460938 95.289062 51.566406 C 102.59375 49.726562 108.785156 48.855469 112.445312 41.664062 C 112.574219 44.128906 112.730469 46.382812 112.953125 48.9375 C 116.140625 85.105469 84.027344 82.796875 80.785156 80.660156 C 79.769531 80.40625 78.953125 80.097656 78.335938 79.644531 " fill-opacity="1" fill-rule="nonzero"/></g><path fill="#ffffff" d="M 35.402344 83.621094 C 35.402344 85.734375 42.214844 87.582031 52.417969 88.605469 L 44.457031 79.726562 C 38.828125 80.757812 35.402344 82.125 35.402344 83.621094 " fill-opacity="1" fill-rule="nonzero"/><path fill="#ffffff" d="M 106.238281 83.621094 C 106.238281 80.398438 90.382812 77.789062 70.820312 77.789062 C 66.875 77.789062 63.082031 77.894531 59.539062 78.089844 C 64.695312 82.726562 69.5 86.957031 71.257812 88.253906 L 72.875 89.445312 C 91.480469 89.269531 106.238281 86.730469 106.238281 83.621094 " fill-opacity="1" fill-rule="nonzero"/><g clip-path="url(#c2b493dfac)"><path fill="#ffffff" d="M 57.445312 78.21875 C 49.878906 71.402344 41.980469 64.125 41.980469 64.125 L 39.382812 58.550781 C 38.277344 57.449219 36.832031 56.902344 35.386719 56.902344 C 33.933594 56.902344 32.484375 57.457031 31.375 58.566406 C 29.171875 60.78125 29.175781 64.367188 31.394531 66.574219 L 36.976562 69.148438 L 46.195312 79.429688 L 54.488281 88.675781 C 59.148438 89.121094 64.476562 89.398438 70.171875 89.453125 C 70.238281 89.453125 70.304688 89.453125 70.371094 89.453125 C 68.445312 88.035156 63.035156 83.25 57.445312 78.21875 " fill-opacity="1" fill-rule="nonzero"/></g><path fill="#05bd93" d="M 37.359375 20.335938 C 40.480469 18.652344 43.757812 17.289062 45.945312 16.445312 C 46.761719 16.101562 47.613281 15.785156 48.5 15.496094 C 48.511719 15.496094 47.503906 15.839844 45.945312 16.445312 C 40.03125 18.902344 35.894531 22.53125 33.125 25.867188 C 32.523438 26.585938 31.988281 27.289062 31.515625 27.960938 C 35.160156 28.175781 37.917969 27.691406 40.335938 26.722656 C 43.070312 25.617188 45.363281 23.878906 47.496094 21.96875 C 49.605469 20.0625 51.550781 17.984375 53.09375 16.351562 C 54.613281 14.722656 55.726562 13.535156 55.660156 13.5625 C 55.613281 13.589844 54.449219 13.09375 52.320312 12.804688 C 50.214844 12.507812 47.148438 12.417969 43.789062 13.132812 C 40.453125 13.828125 36.824219 15.324219 34.050781 17.824219 C 31.894531 19.761719 30.257812 22.316406 29.902344 25.277344 C 31.9375 23.5 34.585938 21.796875 37.359375 20.335938 " fill-opacity="1" fill-rule="nonzero"/><path fill="#05bd93" d="M 21.542969 15.136719 C 21.542969 15.136719 25.316406 35.910156 7.566406 38.226562 C 9.242188 34.050781 12.09375 28.191406 16.390625 23.203125 C 17.175781 22.320312 17.660156 21.800781 17.660156 21.800781 C 17.222656 22.257812 16.800781 22.726562 16.390625 23.203125 C 14.039062 25.84375 8.972656 31.742188 5.945312 36.808594 C 1.578125 22.84375 21.542969 15.136719 21.542969 15.136719 " fill-opacity="1" fill-rule="nonzero"/><g clip-path="url(#aca3c9076f)"><path fill="#05bd93" d="M 136.351562 101.214844 C 142.527344 83.894531 144.15625 66.101562 140.191406 50.507812 C 136.300781 34.894531 126.8125 21.480469 112.332031 12.503906 C 98.808594 4.070312 82.707031 0.433594 66.753906 0.277344 C 79.882812 1.085938 92.34375 4.25 103.042969 9.589844 C 113.757812 14.910156 122.714844 22.40625 129.195312 31.617188 C 135.695312 40.816406 139.722656 51.730469 140.953125 63.625 C 142.199219 75.507812 140.644531 88.375 136.351562 101.214844 " fill-opacity="1" fill-rule="nonzero"/></g><path fill="#05bd93" d="M 130.941406 100.324219 C 112.542969 135.605469 82.507812 150.238281 44.046875 133.992188 C 19.4375 123.597656 6.648438 100.550781 9.695312 70.140625 C 9.777344 68.632812 9.945312 67.210938 10.125 65.851562 C 10.621094 62.167969 11.4375 58.484375 12.597656 54.84375 C 12.597656 54.839844 12.601562 54.835938 12.605469 54.828125 C 13.035156 53.371094 13.445312 52.175781 14.269531 50.195312 C 14.769531 48.957031 15.308594 47.726562 15.890625 46.503906 C 20.597656 36.597656 27.476562 28.410156 35.664062 22.253906 C 25.773438 28.816406 17.464844 38.089844 11.988281 49.613281 C 5.703125 62.835938 4.09375 77.03125 6.5 90.304688 C 3.269531 79.511719 2.464844 72.296875 2.476562 62.101562 C 2.488281 50.496094 5.511719 39.683594 10.835938 30.3125 C 3.988281 40.777344 0.0351562 53.242188 0.0234375 66.734375 C 0.0078125 83.871094 4.808594 97.046875 14.457031 111.839844 C 20.863281 122.785156 30.511719 131.9375 42.835938 137.703125 C 75.691406 153.074219 115.152344 138.550781 130.972656 105.269531 C 136.355469 93.941406 138.308594 81.898438 137.242188 70.335938 C 137.570312 80.335938 135.917969 90.78125 130.941406 100.324219 " fill-opacity="1" fill-rule="nonzero"/><g clip-path="url(#0dc7d07253)"><path fill="#05bd93" d="M 0.65625 95.28125 C 0.6875 95.433594 0.738281 95.585938 0.789062 95.738281 C 0.835938 95.886719 0.894531 96.039062 0.949219 96.1875 C 1.058594 96.484375 1.179688 96.78125 1.300781 97.074219 C 1.542969 97.664062 1.804688 98.246094 2.070312 98.824219 C 2.605469 99.980469 3.171875 101.117188 3.761719 102.246094 C 4.355469 103.375 4.964844 104.488281 5.601562 105.589844 C 6.234375 106.695312 6.890625 107.785156 7.566406 108.859375 C 8.242188 109.9375 8.9375 111.003906 9.648438 112.054688 C 10.363281 113.105469 11.097656 114.140625 11.847656 115.164062 C 12.601562 116.183594 13.371094 117.195312 14.160156 118.1875 L 14.753906 118.929688 L 15.359375 119.664062 L 15.96875 120.394531 C 16.175781 120.632812 16.378906 120.875 16.585938 121.117188 C 17.414062 122.074219 18.261719 123.019531 19.128906 123.941406 C 19.992188 124.863281 20.878906 125.769531 21.785156 126.652344 C 22.011719 126.871094 22.238281 127.09375 22.46875 127.3125 C 22.699219 127.527344 22.925781 127.746094 23.160156 127.960938 L 23.855469 128.605469 L 24.558594 129.242188 C 25.503906 130.082031 26.46875 130.898438 27.453125 131.691406 C 29.417969 133.277344 31.460938 134.765625 33.582031 136.132812 C 35.695312 137.511719 37.894531 138.757812 40.152344 139.878906 C 42.40625 141.007812 44.734375 141.980469 47.109375 142.828125 L 48 143.136719 L 48.898438 143.429688 C 49.046875 143.480469 49.199219 143.527344 49.347656 143.570312 L 49.800781 143.710938 C 49.953125 143.753906 50.101562 143.804688 50.253906 143.847656 L 50.707031 143.976562 C 51.011719 144.0625 51.3125 144.152344 51.617188 144.230469 L 52.074219 144.351562 C 52.226562 144.390625 52.378906 144.433594 52.53125 144.46875 L 53.449219 144.695312 C 53.757812 144.769531 54.066406 144.835938 54.371094 144.90625 C 55.605469 145.175781 56.84375 145.414062 58.089844 145.609375 C 59.335938 145.800781 60.585938 145.964844 61.84375 146.089844 C 63.097656 146.210938 64.359375 146.292969 65.621094 146.347656 C 66.882812 146.394531 68.148438 146.410156 69.414062 146.390625 C 69.730469 146.386719 70.046875 146.375 70.359375 146.367188 L 70.835938 146.355469 L 71.308594 146.335938 C 71.625 146.320312 71.941406 146.308594 72.257812 146.292969 L 73.207031 146.230469 C 73.519531 146.214844 73.835938 146.183594 74.152344 146.160156 L 74.625 146.117188 C 74.78125 146.105469 74.941406 146.09375 75.097656 146.074219 L 76.042969 145.980469 C 76.359375 145.953125 76.671875 145.910156 76.988281 145.875 L 77.460938 145.816406 L 77.695312 145.789062 C 77.773438 145.78125 77.851562 145.769531 77.933594 145.757812 L 78.875 145.628906 C 79.1875 145.585938 79.5 145.53125 79.8125 145.484375 L 80.285156 145.410156 C 80.441406 145.386719 80.597656 145.363281 80.753906 145.335938 C 81.378906 145.226562 82.003906 145.125 82.628906 145 L 83.5625 144.820312 L 84.496094 144.625 C 86.984375 144.101562 89.445312 143.460938 91.890625 142.738281 C 94.332031 142.015625 96.75 141.203125 99.148438 140.324219 L 99.164062 140.363281 C 96.828125 141.398438 94.449219 142.339844 92.03125 143.179688 C 89.617188 144.023438 87.160156 144.769531 84.675781 145.390625 L 83.742188 145.625 L 82.804688 145.839844 C 82.179688 145.984375 81.550781 146.109375 80.921875 146.242188 C 79.664062 146.492188 78.398438 146.71875 77.125 146.90625 C 76.492188 147.003906 75.855469 147.085938 75.214844 147.167969 C 75.058594 147.1875 74.898438 147.203125 74.738281 147.222656 L 74.257812 147.273438 C 73.9375 147.308594 73.617188 147.347656 73.296875 147.371094 L 72.335938 147.457031 C 72.015625 147.484375 71.695312 147.503906 71.375 147.527344 L 70.894531 147.5625 L 70.410156 147.585938 C 70.089844 147.601562 69.769531 147.621094 69.445312 147.632812 C 68.160156 147.675781 66.871094 147.6875 65.582031 147.667969 C 64.292969 147.640625 63.003906 147.570312 61.71875 147.472656 C 60.433594 147.363281 59.152344 147.222656 57.871094 147.039062 C 56.59375 146.855469 55.324219 146.625 54.058594 146.363281 C 53.742188 146.292969 53.425781 146.230469 53.113281 146.160156 L 52.167969 145.9375 C 52.011719 145.902344 51.855469 145.859375 51.699219 145.820312 L 51.230469 145.699219 C 50.914062 145.621094 50.605469 145.53125 50.292969 145.445312 L 49.828125 145.316406 C 49.671875 145.273438 49.515625 145.226562 49.363281 145.179688 L 48.898438 145.039062 C 48.742188 144.996094 48.589844 144.949219 48.433594 144.898438 L 47.511719 144.605469 L 46.59375 144.292969 C 45.371094 143.867188 44.167969 143.402344 42.976562 142.902344 C 42.679688 142.773438 42.378906 142.652344 42.085938 142.519531 L 41.199219 142.125 L 40.324219 141.714844 C 40.175781 141.644531 40.03125 141.574219 39.886719 141.503906 L 39.449219 141.289062 C 38.292969 140.71875 37.15625 140.105469 36.035156 139.464844 C 34.914062 138.824219 33.8125 138.148438 32.730469 137.445312 C 30.570312 136.027344 28.492188 134.496094 26.5 132.859375 C 25.507812 132.039062 24.535156 131.191406 23.582031 130.324219 L 22.875 129.667969 L 22.171875 129.003906 C 21.941406 128.78125 21.710938 128.554688 21.480469 128.332031 C 21.25 128.105469 21.023438 127.875 20.796875 127.648438 C 19.890625 126.734375 19.007812 125.800781 18.144531 124.847656 C 17.28125 123.890625 16.445312 122.917969 15.625 121.925781 C 14.804688 120.9375 14.011719 119.925781 13.238281 118.902344 C 12.46875 117.875 11.714844 116.835938 10.984375 115.777344 C 10.257812 114.722656 9.546875 113.652344 8.863281 112.566406 C 8.183594 111.480469 7.519531 110.382812 6.878906 109.273438 C 6.242188 108.160156 5.625 107.039062 5.035156 105.902344 C 4.738281 105.335938 4.449219 104.761719 4.164062 104.191406 C 3.882812 103.617188 3.605469 103.039062 3.335938 102.457031 C 2.796875 101.296875 2.289062 100.121094 1.816406 98.933594 C 1.582031 98.335938 1.355469 97.738281 1.144531 97.132812 C 1.042969 96.832031 0.941406 96.527344 0.847656 96.222656 C 0.800781 96.066406 0.757812 95.914062 0.714844 95.757812 C 0.675781 95.605469 0.636719 95.449219 0.613281 95.289062 L 0.65625 95.28125 " fill-opacity="1" fill-rule="nonzero"/></g><path fill="#05bd93" d="M 24.203125 22.960938 C 24.753906 22.007812 25.421875 21.125 26.136719 20.285156 L 26.335938 20.050781 L 26.40625 19.972656 L 26.683594 19.667969 C 26.777344 19.566406 26.867188 19.460938 26.964844 19.363281 L 27.25 19.0625 L 27.539062 18.765625 L 27.832031 18.476562 L 28.128906 18.1875 C 28.226562 18.089844 28.332031 18 28.429688 17.902344 L 28.886719 17.480469 L 29.039062 17.34375 L 29.660156 16.796875 L 30.296875 16.265625 L 30.457031 16.132812 L 30.941406 15.742188 L 31.265625 15.484375 L 31.59375 15.234375 C 31.8125 15.066406 32.03125 14.898438 32.253906 14.734375 L 33.09375 14.128906 L 33.265625 14.011719 L 33.605469 13.777344 C 34.058594 13.457031 34.523438 13.160156 34.984375 12.859375 C 35.21875 12.707031 35.453125 12.5625 35.6875 12.417969 C 35.921875 12.269531 36.15625 12.121094 36.394531 11.984375 L 37.109375 11.5625 C 37.226562 11.492188 37.347656 11.425781 37.46875 11.355469 L 37.832031 11.15625 L 38.191406 10.953125 L 38.375 10.851562 L 38.554688 10.753906 L 39.289062 10.363281 C 39.53125 10.230469 39.78125 10.109375 40.027344 9.984375 L 40.769531 9.613281 L 41.519531 9.257812 C 41.769531 9.136719 42.015625 9.015625 42.269531 8.90625 C 42.777344 8.679688 43.277344 8.449219 43.789062 8.238281 L 44.554688 7.917969 L 45.328125 7.613281 C 47.390625 6.804688 49.496094 6.109375 51.628906 5.515625 C 52.164062 5.371094 52.703125 5.238281 53.238281 5.097656 L 54.859375 4.71875 C 55.398438 4.605469 55.941406 4.492188 56.484375 4.382812 C 57.03125 4.285156 57.574219 4.179688 58.121094 4.085938 C 62.496094 3.355469 66.945312 3.078125 71.375 3.242188 C 75.808594 3.402344 80.222656 3.992188 84.535156 4.996094 C 85.074219 5.125 85.613281 5.238281 86.148438 5.386719 L 86.949219 5.597656 C 87.21875 5.667969 87.488281 5.730469 87.753906 5.808594 L 89.34375 6.273438 C 89.476562 6.3125 89.609375 6.351562 89.742188 6.394531 L 90.136719 6.519531 L 91.714844 7.027344 L 93.277344 7.582031 C 93.539062 7.675781 93.800781 7.765625 94.058594 7.867188 L 95.601562 8.464844 C 95.730469 8.515625 95.863281 8.5625 95.988281 8.613281 L 96.371094 8.773438 L 97.132812 9.09375 L 97.898438 9.414062 C 98.027344 9.464844 98.148438 9.527344 98.277344 9.582031 L 98.652344 9.75 L 100.164062 10.433594 L 101.652344 11.15625 L 102.023438 11.339844 C 102.144531 11.398438 102.269531 11.457031 102.390625 11.523438 L 103.859375 12.285156 L 104.226562 12.476562 L 104.410156 12.570312 L 104.589844 12.671875 L 106.035156 13.472656 L 106.394531 13.675781 L 106.578125 13.777344 L 106.753906 13.878906 L 107.464844 14.300781 L 108.175781 14.71875 L 108.53125 14.929688 L 108.707031 15.035156 L 108.882812 15.144531 L 110.28125 16.023438 L 110.632812 16.242188 L 110.804688 16.351562 C 110.867188 16.390625 110.921875 16.425781 110.980469 16.464844 L 111.664062 16.921875 L 113.039062 17.835938 C 113.488281 18.152344 113.9375 18.472656 114.386719 18.789062 L 115.058594 19.261719 L 115.226562 19.382812 C 115.28125 19.421875 115.339844 19.464844 115.394531 19.503906 L 115.722656 19.75 L 117.042969 20.738281 L 117.371094 20.984375 C 117.484375 21.066406 117.589844 21.152344 117.695312 21.238281 L 118.34375 21.746094 L 119.632812 22.769531 L 119.609375 22.804688 L 118.253906 21.871094 C 117.800781 21.5625 117.355469 21.242188 116.894531 20.945312 C 115.976562 20.34375 115.074219 19.726562 114.140625 19.152344 L 112.753906 18.273438 L 110.644531 17.007812 C 110.410156 16.867188 110.167969 16.734375 109.933594 16.597656 L 108.507812 15.785156 C 106.59375 14.738281 104.664062 13.710938 102.6875 12.785156 L 101.953125 12.433594 C 101.828125 12.371094 101.703125 12.316406 101.578125 12.261719 L 101.207031 12.09375 L 99.714844 11.425781 L 98.207031 10.792969 L 97.832031 10.632812 C 97.707031 10.582031 97.582031 10.527344 97.453125 10.476562 L 96.691406 10.183594 L 95.929688 9.886719 L 95.550781 9.738281 C 95.425781 9.6875 95.296875 9.644531 95.167969 9.597656 L 93.632812 9.042969 C 93.378906 8.949219 93.117188 8.867188 92.859375 8.78125 L 92.085938 8.527344 L 91.308594 8.269531 L 90.53125 8.03125 L 89.75 7.796875 L 89.359375 7.675781 C 89.226562 7.636719 89.097656 7.605469 88.964844 7.570312 L 87.394531 7.136719 C 86.339844 6.875 85.289062 6.601562 84.222656 6.382812 L 83.429688 6.210938 L 83.328125 6.1875 L 83.226562 6.167969 L 83.027344 6.132812 L 82.628906 6.054688 L 81.828125 5.902344 L 81.429688 5.828125 C 81.296875 5.804688 81.160156 5.78125 81.027344 5.761719 L 79.421875 5.496094 L 77.808594 5.277344 C 75.65625 5.011719 73.492188 4.832031 71.324219 4.757812 C 69.15625 4.683594 66.984375 4.707031 64.820312 4.835938 L 63.199219 4.953125 L 61.582031 5.105469 L 59.964844 5.300781 C 59.429688 5.375 58.890625 5.457031 58.355469 5.53125 C 54.070312 6.199219 49.847656 7.285156 45.765625 8.769531 L 45 9.046875 L 44.238281 9.34375 C 43.730469 9.535156 43.230469 9.75 42.730469 9.953125 C 42.476562 10.054688 42.230469 10.167969 41.980469 10.277344 L 41.234375 10.601562 L 40.496094 10.945312 C 40.246094 11.0625 40 11.171875 39.757812 11.292969 L 38.839844 11.742188 L 38.660156 11.835938 L 37.933594 12.210938 C 37.8125 12.269531 37.691406 12.332031 37.574219 12.398438 L 36.855469 12.789062 C 36.617188 12.914062 36.378906 13.050781 36.144531 13.1875 C 35.910156 13.320312 35.671875 13.453125 35.4375 13.589844 C 34.96875 13.871094 34.5 14.144531 34.042969 14.4375 L 33.695312 14.65625 L 33.351562 14.875 L 32.667969 15.324219 C 32.441406 15.472656 32.21875 15.628906 31.996094 15.785156 L 31.660156 16.015625 L 31.328125 16.257812 L 30.996094 16.492188 L 30.828125 16.613281 L 30.667969 16.734375 L 30.015625 17.230469 L 29.375 17.734375 L 29.214844 17.863281 L 29.058594 17.992188 L 28.742188 18.253906 C 28.640625 18.34375 28.53125 18.429688 28.429688 18.519531 L 28.121094 18.789062 L 27.816406 19.058594 L 27.515625 19.332031 L 27.214844 19.609375 C 27.113281 19.703125 27.015625 19.800781 26.917969 19.894531 L 26.625 20.179688 L 26.550781 20.25 L 26.339844 20.472656 C 25.578125 21.253906 24.863281 22.082031 24.238281 22.980469 L 24.203125 22.960938 " fill-opacity="1" fill-rule="nonzero"/></svg>